PathFileType	4	(X/Y/Z)	C:\Users\dbl\Desktop\LZH\BX\Trimmed_bx_n_10_901.trc
DataRate	CameraRate	NumFrames	NumMarkers	Units	OrigDataRate	OrigDataStartFrame	OrigNumFrames
50.00	50.00	      4	43	mm	50.00	1	      1518
Frame#	Time	Top.Head			R.Acromium			L.Acromium			Sternum			R.ASIS			L.ASIS			V.Sacral			R.Thigh.Upper			R.Thigh.Front			R.Thigh.Rear			R.Knee.Lat			R.Knee.Med			R.Shank.Upper			R.Shank.Front			R.Shank.Rear			R.Ankle.Lat			R.Midfoot.Lat			R.Toe.Lat			R.Toe.Tip			R.Toe.Med			R.Ankle.Med			R.Midfoot.Sup			R.Heel			L.Thigh.Upper			L.Thigh.Front			L.Thigh.Rear			L.Knee.Lat			L.Knee.Med			L.Shank.Upper			L.Shank.Front			L.Shank.Rear			L.Ankle.Lat			L.Midfoot.Lat			L.Toe.Lat			L.Toe.Tip			L.Toe.Med			L.Ankle.Med			L.Midfoot.Sup			L.Heel			origin1 front left			origin2 front right			origin 3 back right			origin 4 back leftt			
		X1	Y1	Z1	X2	Y2	Z2	X3	Y3	Z3	X4	Y4	Z4	X5	Y5	Z5	X6	Y6	Z6	X7	Y7	Z7	X8	Y8	Z8	X9	Y9	Z9	X10	Y10	Z10	X11	Y11	Z11	X12	Y12	Z12	X13	Y13	Z13	X14	Y14	Z14	X15	Y15	Z15	X16	Y16	Z16	X17	Y17	Z17	X18	Y18	Z18	X19	Y19	Z19	X20	Y20	Z20	X21	Y21	Z21	X22	Y22	Z22	X23	Y23	Z23	X24	Y24	Z24	X25	Y25	Z25	X26	Y26	Z26	X27	Y27	Z27	X28	Y28	Z28	X29	Y29	Z29	X30	Y30	Z30	X31	Y31	Z31	X32	Y32	Z32	X33	Y33	Z33	X34	Y34	Z34	X35	Y35	Z35	X36	Y36	Z36	X37	Y37	Z37	X38	Y38	Z38	X39	Y39	Z39	X40	Y40	Z40	X41	Y41	Z41	X42	Y42	Z42	X43	Y43	Z43	

1	0.000	-619.13770	277.89139	1838.60510	-629.49042	96.03804	1543.47424	-633.29230	449.84518	1531.58374	-521.00348	271.59863	1354.72498	-527.59442	142.78848	1035.60681	-507.79123	366.79074	1039.97217	-721.46155	262.11780	1052.71069	-599.96130	88.61095	831.19019	-515.67175	153.36305	806.29803	-627.44629	105.68038	720.69342	-646.98029	125.74049	604.50946	-626.33997	234.16789	560.94000	-678.67236	125.95821	540.73621	-601.24060	176.61665	523.73584	-688.67157	117.63692	490.03143	-686.10480	147.65517	213.11957	-608.22278	90.93017	165.25136	-560.25171	72.29940	162.98672	-481.56882	115.57327	156.60980	-530.95984	167.13425	164.43797	-639.63556	226.78516	219.16362	-597.08191	203.19342	170.09967	-723.98181	211.44511	169.39597	-593.00604	446.60745	851.05634	-514.88660	391.26935	813.90900	-618.81818	433.41550	737.63452	-638.78076	412.37204	604.91760	-617.14056	309.69098	570.22705	-656.09583	415.05606	559.67303	-599.68042	358.71249	535.85016	-710.60547	418.06509	497.46283	-670.04449	411.03891	214.27658	-574.04626	456.98383	164.87450	-534.98566	466.89523	158.04974	-470.22504	417.25034	162.91127	-517.54144	374.80737	176.73781	-640.71454	318.57993	207.81688	-590.94977	336.86230	169.21004	-729.48547	341.53552	161.44453	-443.34567	448.99414	146.64737	-450.10049	75.23861	143.95206	-806.40674	82.57019	142.06400	-799.22791	456.89084	144.57167	
2	0.020	-619.11017	277.77054	1838.61829	-629.51343	96.07558	1543.48694	-633.37744	449.90219	1531.59412	-521.05634	271.55814	1354.76758	-527.60223	142.80406	1035.59607	-507.81726	366.87213	1039.92310	-721.48596	262.17334	1052.75940	-599.95135	88.60969	831.20764	-515.64160	153.43774	806.28284	-627.43652	105.66653	720.70239	-646.91980	125.82851	604.48785	-626.31488	234.20634	560.90570	-678.63708	125.91400	540.77234	-601.27283	176.69719	523.64532	-688.70789	117.58760	490.01672	-686.12769	147.58647	213.23344	-608.22375	90.94065	165.27870	-560.29510	72.27225	162.98676	-481.55664	115.53551	156.63957	-530.95251	167.17445	164.43684	-639.63660	226.77869	219.13664	-597.00946	203.14455	170.17421	-724.05176	211.50327	169.37479	-593.03467	446.69025	851.07935	-514.96759	391.37930	813.89490	-618.80737	433.43484	737.60693	-638.83264	412.41559	604.90173	-617.12976	309.67337	570.20758	-656.11255	415.01370	559.64642	-599.67743	358.74594	535.92194	-710.61261	418.10757	497.45685	-670.04468	411.04684	214.29773	-573.98370	456.91959	164.73926	-534.96869	466.90286	158.05316	-470.23312	417.28638	162.88541	-517.54858	374.87448	176.75980	-640.88806	318.78421	207.59258	-590.94922	336.84308	169.23531	-729.43945	341.51462	161.45627	-443.50052	448.96494	147.00989	-450.08270	75.22582	143.88795	-806.42395	82.55730	142.01013	-799.18518	456.93661	144.51126	
3	0.040	-619.10883	277.67007	1838.62793	-629.54419	96.11269	1543.49438	-633.47662	449.95438	1531.59949	-521.12128	271.53787	1354.80066	-527.60651	142.82008	1035.59229	-507.85205	366.96176	1039.88159	-721.51300	262.22223	1052.79907	-599.93011	88.62679	831.22095	-515.60663	153.50055	806.27405	-627.42456	105.65510	720.70734	-646.86346	125.90703	604.46899	-626.29443	234.24242	560.87842	-678.59808	125.87780	540.80841	-601.29834	176.76221	523.55823	-688.72974	117.55843	490.00577	-686.14606	147.52498	213.33510	-608.22668	90.94732	165.30336	-560.32269	72.25794	162.98708	-481.54535	115.50302	156.66269	-530.94818	167.20288	164.43092	-639.64069	226.77568	219.11148	-596.95197	203.10797	170.23523	-724.11096	211.54784	169.35966	-593.06927	446.76352	851.08862	-515.03857	391.47800	813.87720	-618.79865	433.45065	737.58484	-638.87604	412.44974	604.88489	-617.11993	309.65121	570.17645	-656.12732	414.98676	559.63092	-599.67950	358.77100	535.98199	-710.61572	418.14404	497.45224	-670.04736	411.05911	214.31696	-573.93756	456.86954	164.63554	-534.95612	466.91064	158.05756	-470.23816	417.31293	162.86400	-517.55603	374.92126	176.77290	-641.02979	318.95221	207.40567	-590.94073	336.83627	169.23213	-729.41199	341.50464	161.46681	-443.60980	448.94409	147.26646	-450.06818	75.21688	143.83493	-806.44153	82.55901	141.97284	-799.14905	456.98355	144.47781	
4	0.060	-619.14899	277.60403	1838.63159	-629.58685	96.14928	1543.49268	-633.59967	449.99817	1531.59680	-521.20453	271.55057	1354.81812	-527.60431	142.83746	1035.60059	-507.89993	367.06323	1039.85364	-721.54388	262.26120	1052.82471	-599.89008	88.67368	831.22601	-515.56580	153.54527	806.27490	-627.40723	105.64693	720.70642	-646.81262	125.97274	604.45502	-626.27740	234.27257	560.86554	-678.55200	125.85532	540.84460	-601.31274	176.80261	523.48029	-688.72766	117.56084	490.00070	-686.15802	147.47783	213.41414	-608.23297	90.94822	165.32549	-560.32520	72.26322	162.98796	-481.53485	115.47894	156.67474	-530.94720	167.21199	164.41913	-639.64941	226.77769	219.08891	-596.91907	203.09091	170.27324	-724.15192	211.57220	169.35228	-593.11627	446.82248	851.07758	-515.09448	391.55872	813.85516	-618.79559	433.46234	737.57269	-638.90558	412.46906	604.86591	-617.11353	309.62427	570.12805	-656.13934	414.98276	559.63116	-599.69067	358.78488	536.02405	-710.61444	418.17078	497.44925	-670.05457	411.07669	214.33232	-573.91705	456.84119	164.58318	-534.94983	466.91843	158.06102	-470.23886	417.32428	162.85056	-517.56396	374.93893	176.77292	-641.11804	319.05832	207.28587	-590.91754	336.84894	169.18112	-729.41199	341.51013	161.47565	-443.65094	448.93536	147.36383	-450.05905	75.21354	143.79916	-806.45789	82.58025	141.96098	-799.12445	457.02933	144.48180	
